<svg width="512" height="512" viewBox="0 0 512 512" fill="none" xmlns="http://www.w3.org/2000/svg">
<rect width="512" height="512" fill="white"/>
<path d="M291.008 183.132C249.488 185.272 201.488 215.612 202.288 271.852C202.958 317.372 240.458 360.572 291.008 360.572C307.608 360.576 323.875 355.923 337.963 347.143C352.05 338.363 363.391 325.807 370.698 310.902C382.628 286.602 407.548 271.382 434.608 270.902L468.059 270.342L468.488 270.272C468.488 366.922 387.658 446.852 291.008 446.852C244.596 446.852 200.084 428.415 167.265 395.596C134.446 362.777 116.008 318.265 116.008 271.852C116.008 225.44 134.446 180.928 167.265 148.109C200.084 115.29 244.596 96.8524 291.008 96.8524C294.918 96.8524 298.788 96.9924 302.638 97.2424V96.7524H398.969V96.8524H469.488V97.0824C469.518 104.47 468.402 111.817 466.178 118.862C464.203 125.095 461.369 131.022 457.758 136.472C447.311 152.08 431.15 162.958 412.758 166.762C365.938 176.762 347.688 179.762 322.508 181.272C318.958 181.482 294.678 182.942 291.008 183.132Z" fill="#87CEFA"/>
<path d="M353.152 357.055C356.276 353.931 356.276 348.866 353.152 345.742C350.028 342.617 344.962 342.617 341.838 345.742C338.714 348.866 338.714 353.931 341.838 357.055C344.962 360.179 350.028 360.179 353.152 357.055Z" fill="#478EBA"/>
<path d="M468.078 265.813L291.959 264.933C290.898 264.933 289.88 265.354 289.13 266.104C288.38 266.854 287.959 267.872 287.959 268.933C287.959 269.993 288.38 271.011 289.13 271.761C289.88 272.511 290.898 272.933 291.959 272.933L437.129 273.653C433.079 293.733 420.348 316.043 401.568 335.713C381.478 356.713 357.128 372.213 334.768 378.153C317.718 382.673 294.079 383.633 278.239 362.543C272.379 354.753 268.149 343.963 266.329 332.153C264.619 321.153 265.649 314.243 266.209 313.013C266.745 312.188 266.958 311.195 266.808 310.223C266.658 309.251 266.155 308.368 265.396 307.743C264.636 307.118 263.673 306.795 262.69 306.836C261.708 306.876 260.774 307.277 260.069 307.963C255.979 311.963 249.889 319.783 242.179 329.703C226.689 349.633 204.089 378.703 178.309 401.443C175.569 399.043 172.902 396.543 170.309 393.943C154.357 378.118 141.704 359.285 133.082 338.536C124.459 317.786 120.04 295.532 120.078 273.063C120.078 237.383 131.869 202.633 154.239 172.563C164.77 158.432 177.262 145.876 191.339 135.273L278.839 134.273H283.659C285.889 134.273 288.108 134.273 290.318 134.203C324.148 150.613 364.068 167.203 398.318 167.203C410.988 167.203 422.888 164.923 433.398 159.523C453.658 149.093 466.619 127.943 471.909 96.6525C472.004 96.0757 471.973 95.4848 471.815 94.9216C471.658 94.3583 471.379 93.8364 470.999 93.3925C470.622 92.944 470.15 92.5854 469.617 92.3432C469.084 92.1009 468.504 91.9811 467.918 91.9925L295.828 93.9925H291.019C288.789 93.9925 286.569 93.9925 284.369 94.0725C237.979 71.5325 180.169 48.6725 141.269 68.6825C121.009 79.1125 108.049 100.273 102.759 131.553C102.662 132.13 102.693 132.722 102.85 133.287C103.008 133.851 103.287 134.374 103.668 134.818C104.05 135.263 104.524 135.618 105.058 135.859C105.592 136.1 106.173 136.221 106.758 136.213L178.329 135.383C166.946 144.976 156.708 155.852 147.819 167.793C124.409 199.273 112.058 235.653 112.078 273.063C112.033 306.08 121.177 338.458 138.489 366.573L41.7785 398.273C41.1742 398.466 40.6247 398.801 40.1753 399.249C39.726 399.697 39.3897 400.246 39.1943 400.85C38.9989 401.454 38.95 402.095 39.0516 402.722C39.1531 403.348 39.4023 403.941 39.7785 404.453C59.0085 430.453 81.0985 443.853 105.449 444.153H106.289C131.289 444.153 155.909 430.483 178.229 411.903C210.075 437.886 249.947 452.023 291.049 451.903C291.238 451.913 291.429 451.913 291.619 451.903C339.536 451.492 385.358 432.2 419.139 398.215C452.921 364.229 471.937 318.291 472.059 270.373V269.813C472.059 268.755 471.64 267.741 470.894 266.991C470.148 266.242 469.136 265.818 468.078 265.813ZM429.719 152.343C397.259 169.043 348.569 152.343 306.439 132.913C319.285 131.354 331.9 128.273 344.018 123.733C356.628 119.003 372.188 110.483 385.798 100.883L463.118 99.9825C457.838 126.053 446.619 143.653 429.719 152.343ZM295.868 101.933L371.068 101.063C361.618 107.064 351.62 112.157 341.208 116.273C325.386 122.166 308.721 125.484 291.848 126.103C291.108 125.905 290.325 125.929 289.598 126.173C288.088 126.173 286.598 126.243 285.068 126.243H278.779L203.089 127.123C212.67 121.014 222.857 115.914 233.489 111.903C251.883 105.059 271.383 101.669 291.008 101.903L295.868 101.933ZM111.489 128.163C116.769 102.093 127.989 84.4925 144.889 75.8025C177.359 59.1025 226.049 75.8025 268.179 95.2325C255.33 96.7968 242.712 99.8783 230.589 104.413C215.617 110.089 201.487 117.776 188.589 127.263L111.489 128.163ZM106.289 436.163H105.539C85.2085 435.913 66.4085 425.163 49.5985 404.163L142.919 373.533C149.295 382.891 156.541 391.626 164.559 399.623C166.999 402.073 169.559 404.423 172.079 406.713C151.349 423.803 128.778 436.183 106.328 436.183L106.289 436.163ZM413.138 392.863C397.093 409.015 378.015 421.84 357 430.6C335.985 439.361 313.446 443.885 290.679 443.913H290.318C251.796 443.856 214.439 430.695 184.389 406.593C210.389 383.483 232.879 354.593 248.389 334.593C251.709 330.323 254.719 326.453 257.389 323.153C257.829 335.983 261.849 354.153 271.769 367.333C286.219 386.563 309.298 393.143 336.768 385.863C360.488 379.583 386.238 363.273 407.318 341.273C427.578 320.053 441.208 295.703 445.228 273.743L464.018 273.833C463.135 318.604 444.908 361.284 413.178 392.883L413.138 392.863Z" fill="#478EBA"/>
</svg>
