<svg width="180" height="180" viewBox="0 0 180 180" fill="none" xmlns="http://www.w3.org/2000/svg">
<rect width="180" height="180" fill="#2B2B2E"/>
<path d="M35.7628 86.875H30.8537C30.8688 86.2235 30.7855 85.6477 30.6037 85.1477C30.4219 84.6401 30.1491 84.2083 29.7855 83.8522C29.4295 83.4962 28.9938 83.2272 28.4787 83.0454C27.9635 82.856 27.384 82.7613 26.7401 82.7613C25.4976 82.7613 24.3575 83.0719 23.3196 83.6932C22.2817 84.3144 21.4067 85.2159 20.6946 86.3977C19.9825 87.5719 19.4901 88.9924 19.2173 90.6591C18.9522 92.2651 18.9673 93.6098 19.2628 94.6932C19.5582 95.7765 20.081 96.5947 20.831 97.1477C21.5885 97.6932 22.5317 97.9659 23.6605 97.9659C24.3575 97.9659 25.0204 97.8788 25.6491 97.7045C26.2779 97.5227 26.8499 97.2651 27.3651 96.9318C27.8878 96.5909 28.3423 96.178 28.7287 95.6932C29.1226 95.2083 29.4295 94.6591 29.6491 94.0454H34.5923C34.2817 95.1136 33.7969 96.1439 33.1378 97.1363C32.4863 98.1288 31.6795 99.0151 30.7173 99.7954C29.7552 100.568 28.6605 101.182 27.4332 101.636C26.206 102.091 24.8613 102.318 23.3991 102.318C21.2855 102.318 19.4711 101.833 17.956 100.864C16.4484 99.8939 15.3613 98.4962 14.6946 96.6704C14.0279 94.8447 13.9029 92.6439 14.3196 90.0682C14.7363 87.5757 15.5507 85.4621 16.7628 83.7272C17.9825 81.9848 19.4635 80.6628 21.206 79.7613C22.956 78.8598 24.8272 78.4091 26.8196 78.4091C28.206 78.4091 29.4598 78.5985 30.581 78.9772C31.7022 79.356 32.6567 79.9091 33.4446 80.6363C34.2401 81.356 34.8385 82.2386 35.2401 83.2841C35.6416 84.3295 35.8158 85.5265 35.7628 86.875ZM49.1435 94.5682L50.8139 84.5454H55.6548L52.7457 102H48.098L48.6207 98.8295H48.4389C47.901 99.8522 47.117 100.674 46.0866 101.295C45.0563 101.917 43.8859 102.227 42.5753 102.227C41.4086 102.227 40.4238 101.962 39.6207 101.432C38.8253 100.901 38.2609 100.148 37.9276 99.1704C37.5942 98.1932 37.5374 97.0227 37.7571 95.6591L39.6207 84.5454H44.4616L42.7571 94.7954C42.598 95.8257 42.742 96.6401 43.1889 97.2386C43.6359 97.8371 44.3177 98.1363 45.2344 98.1363C45.8177 98.1363 46.3821 98.0038 46.9276 97.7386C47.4806 97.4659 47.9579 97.0644 48.3594 96.5341C48.7609 96.0038 49.0223 95.3485 49.1435 94.5682ZM68.8111 84.5454L68.2088 88.1818H57.6861L58.2997 84.5454H68.8111ZM61.3679 80.3636H66.2088L63.5043 96.6363C63.4285 97.0833 63.4399 97.4318 63.5384 97.6818C63.6368 97.9242 63.7997 98.0947 64.027 98.1932C64.2618 98.2916 64.5421 98.3409 64.8679 98.3409C65.0952 98.3409 65.3262 98.3219 65.5611 98.2841C65.7959 98.2386 65.974 98.2045 66.0952 98.1818L66.277 101.784C66.0043 101.867 65.6368 101.958 65.1747 102.057C64.7202 102.155 64.1823 102.216 63.5611 102.239C62.3793 102.284 61.3793 102.129 60.5611 101.773C59.7429 101.409 59.1558 100.852 58.7997 100.102C58.4437 99.3522 58.3679 98.4091 58.5724 97.2727L61.3679 80.3636ZM78.0554 102.511C76.1009 102.511 74.4986 102.034 73.2486 101.08C71.9986 100.117 71.1463 98.731 70.6918 96.9204C70.2448 95.1098 70.2334 92.9318 70.6577 90.3863C71.0895 87.8485 71.8281 85.6856 72.8736 83.8977C73.9266 82.1098 75.2296 80.75 76.7827 79.8182C78.3433 78.8788 80.0971 78.4091 82.044 78.4091C83.9834 78.4091 85.5781 78.8788 86.8281 79.8182C88.0781 80.7575 88.9342 82.1174 89.3963 83.8977C89.866 85.678 89.8887 87.8409 89.4645 90.3863C89.0402 92.9394 88.3016 95.1212 87.2486 96.9318C86.1956 98.7348 84.8887 100.117 83.3281 101.08C81.7675 102.034 80.0099 102.511 78.0554 102.511ZM78.7372 98.4318C80.0781 98.4318 81.2524 97.7613 82.2599 96.4204C83.2675 95.0795 83.9948 93.0682 84.4418 90.3863C84.7372 88.6288 84.8016 87.1628 84.6349 85.9886C84.4759 84.8068 84.116 83.9204 83.5554 83.3295C82.9948 82.7386 82.2713 82.4432 81.3849 82.4432C80.0592 82.4432 78.8849 83.1098 77.8622 84.4432C76.8471 85.7689 76.1198 87.75 75.6804 90.3863C75.3849 92.1742 75.3205 93.6666 75.4872 94.8636C75.6539 96.053 76.0175 96.9469 76.5781 97.5454C77.1387 98.1363 77.8584 98.4318 78.7372 98.4318ZM98.5838 102L102.447 78.7272H111.766C113.478 78.7272 114.864 78.981 115.925 79.4886C116.993 79.9962 117.739 80.7007 118.163 81.6022C118.588 82.4962 118.701 83.5265 118.504 84.6932C118.345 85.6022 118.023 86.3977 117.538 87.0795C117.061 87.7613 116.47 88.3219 115.766 88.7613C115.061 89.2007 114.296 89.5113 113.47 89.6932L113.425 89.9204C114.304 89.9583 115.095 90.2083 115.8 90.6704C116.504 91.125 117.031 91.7689 117.379 92.6022C117.728 93.4356 117.807 94.4242 117.618 95.5682C117.413 96.803 116.925 97.9053 116.152 98.875C115.379 99.8371 114.349 100.598 113.061 101.159C111.781 101.72 110.269 102 108.527 102H98.5838ZM104.186 97.9772H108.197C109.561 97.9772 110.603 97.7121 111.322 97.1818C112.042 96.6515 112.474 95.9507 112.618 95.0795C112.716 94.4356 112.652 93.8674 112.425 93.375C112.205 92.8825 111.83 92.4962 111.3 92.2159C110.777 91.9356 110.114 91.7954 109.311 91.7954H105.197L104.186 97.9772ZM105.766 88.4659H109.413C110.08 88.4659 110.697 88.3485 111.266 88.1136C111.841 87.8712 112.315 87.5303 112.686 87.0909C113.065 86.6439 113.304 86.1174 113.402 85.5113C113.538 84.6628 113.349 83.9848 112.834 83.4772C112.326 82.9621 111.531 82.7045 110.447 82.7045H106.72L105.766 88.4659ZM128.354 78.7272L124.49 102H119.649L123.513 78.7272H128.354ZM136.277 102.341C134.497 102.341 133.023 101.962 131.857 101.205C130.69 100.439 129.868 99.3788 129.391 98.0227C128.921 96.6591 128.834 95.0719 129.129 93.2613C129.417 91.4735 130.016 89.9091 130.925 88.5682C131.834 87.2272 132.989 86.1856 134.391 85.4432C135.792 84.6932 137.372 84.3182 139.129 84.3182C140.902 84.3182 142.372 84.7007 143.538 85.4659C144.705 86.2235 145.527 87.2841 146.004 88.6477C146.482 90.0113 146.572 91.5985 146.277 93.4091C145.982 95.1894 145.375 96.75 144.459 98.0909C143.542 99.4318 142.387 100.477 140.993 101.227C139.599 101.97 138.027 102.341 136.277 102.341ZM136.754 98.5909C137.572 98.5909 138.296 98.3598 138.925 97.8977C139.561 97.428 140.088 96.7916 140.504 95.9886C140.929 95.178 141.224 94.2613 141.391 93.2386C141.557 92.231 141.569 91.3371 141.425 90.5568C141.281 89.7689 140.978 89.1477 140.516 88.6932C140.061 88.2386 139.436 88.0113 138.641 88.0113C137.822 88.0113 137.095 88.2462 136.459 88.7159C135.822 89.178 135.296 89.8144 134.879 90.625C134.463 91.4356 134.171 92.356 134.004 93.3863C133.845 94.3863 133.834 95.2803 133.97 96.0682C134.107 96.8485 134.406 97.4659 134.868 97.9204C135.33 98.3674 135.959 98.5909 136.754 98.5909ZM154.766 108.909C153.19 108.909 151.875 108.693 150.822 108.261C149.777 107.837 148.982 107.258 148.436 106.523C147.898 105.788 147.603 104.962 147.55 104.045L152.141 103.443C152.224 103.799 152.383 104.129 152.618 104.432C152.86 104.735 153.205 104.977 153.652 105.159C154.107 105.341 154.694 105.432 155.413 105.432C156.466 105.432 157.383 105.174 158.163 104.659C158.944 104.151 159.425 103.299 159.607 102.102L160.129 98.9091H159.925C159.637 99.3939 159.243 99.8522 158.743 100.284C158.25 100.716 157.648 101.068 156.936 101.341C156.232 101.614 155.417 101.75 154.493 101.75C153.175 101.75 152.031 101.447 151.061 100.841C150.099 100.227 149.402 99.2916 148.97 98.0341C148.546 96.7689 148.493 95.1704 148.811 93.2386C149.144 91.2613 149.743 89.6098 150.607 88.2841C151.47 86.9583 152.493 85.9659 153.675 85.3068C154.857 84.6477 156.088 84.3182 157.368 84.3182C158.345 84.3182 159.133 84.4848 159.732 84.8182C160.338 85.1439 160.804 85.553 161.129 86.0454C161.455 86.5303 161.686 87.0075 161.822 87.4772H162.016L162.493 84.5454H167.3L164.368 102.17C164.133 103.663 163.569 104.905 162.675 105.898C161.788 106.898 160.663 107.648 159.3 108.148C157.936 108.655 156.425 108.909 154.766 108.909ZM156.584 98.1136C157.357 98.1136 158.05 97.9204 158.663 97.5341C159.285 97.1401 159.804 96.5795 160.22 95.8522C160.637 95.1174 160.929 94.2386 161.095 93.2159C161.262 92.1932 161.258 91.3068 161.084 90.5568C160.917 89.7992 160.591 89.2121 160.107 88.7954C159.629 88.3788 159 88.1704 158.22 88.1704C157.417 88.1704 156.713 88.3863 156.107 88.8182C155.5 89.2424 154.997 89.8333 154.595 90.5909C154.201 91.3485 153.925 92.2235 153.766 93.2159C153.599 94.2235 153.591 95.0947 153.743 95.8295C153.902 96.5568 154.216 97.1212 154.686 97.5227C155.156 97.9166 155.788 98.1136 156.584 98.1136Z" fill="white"/>
</svg>
