<svg width="512" height="512" viewBox="0 0 512 512" fill="none" xmlns="http://www.w3.org/2000/svg">
<rect width="512" height="512" fill="white"/>
<g clip-path="url(#clip0_450_5895)">
<path d="M66.7944 376.788L66.3337 376.616C66.2324 376.578 56.156 372.722 51.4358 363.978C46.7154 355.235 49.0267 344.707 49.0506 344.602L49.1594 344.123L49.6199 344.295C49.7212 344.333 59.7974 348.189 64.5178 356.933C69.2382 365.676 66.9269 376.204 66.903 376.309L66.7944 376.788ZM52.1917 363.571C56.1825 370.964 64.1451 374.753 66.1626 375.618C66.5462 373.459 67.7492 364.725 63.762 357.34C59.7752 349.955 51.8093 346.16 49.791 345.292C49.4072 347.453 48.2047 356.186 52.1917 363.571V363.571Z" fill="#3F3D56"/>
<path d="M55.0432 361.341C63.5261 366.438 66.7931 376.563 66.7931 376.563C66.7931 376.563 56.3066 378.424 47.8238 373.326C39.3409 368.229 36.0739 358.104 36.0739 358.104C36.0739 358.104 46.5603 356.243 55.0432 361.341Z" fill="#BF65D6"/>
<path d="M367.59 88.104H107.875V365.108H367.59V88.104Z" fill="#3F3D56"/>
<path d="M375.103 377.213H100.362C99.3381 377.212 98.3561 376.805 97.6318 376.081C96.9075 375.358 96.5001 374.377 96.4989 373.354V79.859C96.5001 78.8359 96.9075 77.855 97.6318 77.1316C98.3561 76.4081 99.3381 76.0012 100.362 76H375.103C376.127 76.0012 377.109 76.4081 377.834 77.1315C378.558 77.855 378.965 78.8359 378.967 79.859V373.354C378.965 374.377 378.558 375.358 377.834 376.081C377.109 376.805 376.127 377.212 375.103 377.213V377.213ZM100.362 76.8575C99.5657 76.8584 98.8019 77.1749 98.2386 77.7376C97.6752 78.3003 97.3584 79.0632 97.3575 79.859V373.354C97.3584 374.15 97.6753 374.913 98.2386 375.475C98.802 376.038 99.5658 376.354 100.362 376.355H375.103C375.9 376.354 376.663 376.038 377.227 375.475C377.79 374.913 378.107 374.15 378.108 373.354V79.859C378.107 79.0632 377.79 78.3003 377.227 77.7377C376.663 77.175 375.9 76.8585 375.103 76.8575H100.362Z" fill="#3F3D56"/>
<path d="M332.39 358.561H143.505C142.481 358.56 141.499 358.153 140.775 357.43C140.05 356.706 139.643 355.725 139.642 354.702V323.831C139.643 322.808 140.05 321.827 140.775 321.103C141.499 320.38 142.481 319.973 143.505 319.972H332.39C333.414 319.973 334.396 320.38 335.12 321.103C335.845 321.827 336.252 322.808 336.253 323.831V354.702C336.252 355.725 335.845 356.706 335.12 357.43C334.396 358.153 333.414 358.56 332.39 358.561V358.561ZM143.505 320.829C142.709 320.83 141.945 321.147 141.381 321.709C140.818 322.272 140.501 323.035 140.5 323.831V354.702C140.501 355.498 140.818 356.261 141.381 356.824C141.945 357.386 142.709 357.703 143.505 357.704H332.39C333.186 357.703 333.95 357.386 334.514 356.824C335.077 356.261 335.394 355.498 335.395 354.702V323.831C335.394 323.035 335.077 322.272 334.514 321.709C333.95 321.147 333.186 320.83 332.39 320.829H143.505Z" fill="white"/>
<path d="M186.434 353.416H163.252C162.569 353.415 161.915 353.144 161.432 352.662C160.949 352.18 160.677 351.526 160.677 350.844V327.69C160.677 327.008 160.949 326.354 161.432 325.872C161.915 325.389 162.569 325.118 163.252 325.117H186.434C187.117 325.118 187.771 325.389 188.254 325.872C188.737 326.354 189.009 327.008 189.009 327.69V350.844C189.009 351.526 188.737 352.18 188.254 352.662C187.771 353.144 187.117 353.415 186.434 353.416V353.416ZM163.252 325.975C162.797 325.975 162.361 326.156 162.039 326.478C161.717 326.799 161.536 327.235 161.535 327.69V350.844C161.536 351.298 161.717 351.734 162.039 352.056C162.361 352.377 162.797 352.558 163.252 352.559H186.434C186.889 352.558 187.325 352.377 187.647 352.056C187.969 351.734 188.15 351.298 188.151 350.844V327.69C188.15 327.235 187.969 326.799 187.647 326.478C187.325 326.156 186.889 325.975 186.434 325.975H163.252Z" fill="white"/>
<path d="M228.504 353.416H205.322C204.639 353.415 203.985 353.144 203.502 352.662C203.019 352.18 202.747 351.526 202.747 350.844V327.69C202.747 327.008 203.019 326.354 203.502 325.872C203.985 325.389 204.639 325.118 205.322 325.117H228.504C229.186 325.118 229.841 325.389 230.324 325.872C230.807 326.354 231.079 327.008 231.079 327.69V350.844C231.079 351.526 230.807 352.18 230.324 352.662C229.841 353.144 229.186 353.415 228.504 353.416V353.416ZM205.322 325.975C204.867 325.975 204.431 326.156 204.109 326.478C203.787 326.799 203.606 327.235 203.605 327.69V350.844C203.606 351.298 203.787 351.734 204.109 352.056C204.431 352.377 204.867 352.558 205.322 352.559H228.504C228.959 352.558 229.395 352.377 229.717 352.056C230.039 351.734 230.22 351.298 230.221 350.844V327.69C230.22 327.235 230.039 326.799 229.717 326.478C229.395 326.156 228.959 325.975 228.504 325.975H205.322Z" fill="white"/>
<path d="M270.573 353.416H247.392C246.709 353.415 246.054 353.144 245.571 352.662C245.088 352.18 244.817 351.526 244.816 350.844V327.69C244.817 327.008 245.088 326.354 245.571 325.872C246.054 325.389 246.709 325.118 247.392 325.117H270.573C271.256 325.118 271.911 325.389 272.393 325.872C272.876 326.354 273.148 327.008 273.149 327.69V350.844C273.148 351.526 272.876 352.18 272.393 352.662C271.911 353.144 271.256 353.415 270.573 353.416ZM247.392 325.975C246.936 325.975 246.5 326.156 246.178 326.478C245.856 326.799 245.675 327.235 245.674 327.69V350.844C245.675 351.298 245.856 351.734 246.178 352.056C246.5 352.377 246.936 352.558 247.392 352.559H270.573C271.028 352.558 271.465 352.377 271.787 352.056C272.108 351.734 272.29 351.298 272.29 350.844V327.69C272.29 327.235 272.108 326.799 271.787 326.478C271.465 326.156 271.028 325.975 270.573 325.975H247.392Z" fill="white"/>
<path d="M312.643 353.416H289.462C288.779 353.415 288.124 353.144 287.641 352.662C287.158 352.18 286.887 351.526 286.886 350.844V327.69C286.887 327.008 287.158 326.354 287.641 325.872C288.124 325.389 288.779 325.118 289.462 325.117H312.643C313.326 325.118 313.98 325.389 314.463 325.872C314.946 326.354 315.218 327.008 315.219 327.69V350.844C315.218 351.526 314.946 352.18 314.463 352.662C313.98 353.144 313.326 353.415 312.643 353.416ZM289.462 325.975C289.006 325.975 288.57 326.156 288.248 326.478C287.926 326.799 287.745 327.235 287.744 327.69V350.844C287.745 351.298 287.926 351.734 288.248 352.056C288.57 352.377 289.006 352.558 289.462 352.559H312.643C313.098 352.558 313.535 352.377 313.857 352.056C314.178 351.734 314.36 351.298 314.36 350.844V327.69C314.36 327.235 314.178 326.799 313.857 326.478C313.535 326.156 313.098 325.975 312.643 325.975H289.462Z" fill="white"/>
<path d="M165.184 122.736H142.003C140.817 122.736 139.856 123.696 139.856 124.88V148.034C139.856 149.218 140.817 150.178 142.003 150.178H165.184C166.37 150.178 167.331 149.218 167.331 148.034V124.88C167.331 123.696 166.37 122.736 165.184 122.736Z" fill="white"/>
<path d="M207.254 122.736H184.072C182.887 122.736 181.926 123.696 181.926 124.88V148.034C181.926 149.218 182.887 150.178 184.072 150.178H207.254C208.439 150.178 209.4 149.218 209.4 148.034V124.88C209.4 123.696 208.439 122.736 207.254 122.736Z" fill="white"/>
<path d="M249.324 122.736H226.142C224.957 122.736 223.996 123.696 223.996 124.88V148.034C223.996 149.218 224.957 150.178 226.142 150.178H249.324C250.509 150.178 251.47 149.218 251.47 148.034V124.88C251.47 123.696 250.509 122.736 249.324 122.736Z" fill="white"/>
<path d="M291.393 122.736H268.212C267.027 122.736 266.066 123.696 266.066 124.88V148.034C266.066 149.218 267.027 150.178 268.212 150.178H291.393C292.579 150.178 293.54 149.218 293.54 148.034V124.88C293.54 123.696 292.579 122.736 291.393 122.736Z" fill="white"/>
<path d="M333.463 122.736H310.281C309.096 122.736 308.135 123.696 308.135 124.88V148.034C308.135 149.218 309.096 150.178 310.281 150.178H333.463C334.648 150.178 335.609 149.218 335.609 148.034V124.88C335.609 123.696 334.648 122.736 333.463 122.736Z" fill="white"/>
<path d="M165.399 179.334H142.218C141.032 179.334 140.071 180.294 140.071 181.478V204.632C140.071 205.816 141.032 206.775 142.218 206.775H165.399C166.584 206.775 167.545 205.816 167.545 204.632V181.478C167.545 180.294 166.584 179.334 165.399 179.334Z" fill="white"/>
<path d="M207.468 179.334H184.287C183.101 179.334 182.141 180.294 182.141 181.478V204.632C182.141 205.816 183.101 206.775 184.287 206.775H207.468C208.654 206.775 209.615 205.816 209.615 204.632V181.478C209.615 180.294 208.654 179.334 207.468 179.334Z" fill="white"/>
<path d="M249.538 179.334H226.357C225.171 179.334 224.21 180.294 224.21 181.478V204.632C224.21 205.816 225.171 206.775 226.357 206.775H249.538C250.724 206.775 251.685 205.816 251.685 204.632V181.478C251.685 180.294 250.724 179.334 249.538 179.334Z" fill="white"/>
<path d="M291.608 179.334H268.427C267.241 179.334 266.28 180.294 266.28 181.478V204.632C266.28 205.816 267.241 206.775 268.427 206.775H291.608C292.793 206.775 293.754 205.816 293.754 204.632V181.478C293.754 180.294 292.793 179.334 291.608 179.334Z" fill="white"/>
<path d="M333.678 179.334H310.497C309.311 179.334 308.35 180.294 308.35 181.478V204.632C308.35 205.816 309.311 206.775 310.497 206.775H333.678C334.863 206.775 335.824 205.816 335.824 204.632V181.478C335.824 180.294 334.863 179.334 333.678 179.334Z" fill="white"/>
<path d="M165.613 235.932H142.432C141.247 235.932 140.286 236.892 140.286 238.076V261.23C140.286 262.414 141.247 263.374 142.432 263.374H165.613C166.799 263.374 167.76 262.414 167.76 261.23V238.076C167.76 236.892 166.799 235.932 165.613 235.932Z" fill="white"/>
<path d="M207.683 235.932H184.502C183.316 235.932 182.355 236.892 182.355 238.076V261.23C182.355 262.414 183.316 263.374 184.502 263.374H207.683C208.868 263.374 209.829 262.414 209.829 261.23V238.076C209.829 236.892 208.868 235.932 207.683 235.932Z" fill="white"/>
<path d="M249.753 235.932H226.571C225.386 235.932 224.425 236.892 224.425 238.076V261.23C224.425 262.414 225.386 263.374 226.571 263.374H249.753C250.938 263.374 251.899 262.414 251.899 261.23V238.076C251.899 236.892 250.938 235.932 249.753 235.932Z" fill="white"/>
<path d="M291.823 235.932H268.641C267.456 235.932 266.495 236.892 266.495 238.076V261.23C266.495 262.414 267.456 263.374 268.641 263.374H291.823C293.008 263.374 293.969 262.414 293.969 261.23V238.076C293.969 236.892 293.008 235.932 291.823 235.932Z" fill="white"/>
<path d="M333.892 235.932H310.711C309.525 235.932 308.564 236.892 308.564 238.076V261.23C308.564 262.414 309.525 263.374 310.711 263.374H333.892C335.077 263.374 336.038 262.414 336.038 261.23V238.076C336.038 236.892 335.077 235.932 333.892 235.932Z" fill="white"/>
<path d="M142.218 93.5796H115.602V95.7234H142.218V93.5796Z" fill="white"/>
<path d="M326.38 93.5796H299.764V95.7234H326.38V93.5796Z" fill="white"/>
<path d="M359.005 93.5796H332.39V95.7234H359.005V93.5796Z" fill="white"/>
<path d="M225.297 312.053C227.32 312.053 228.959 310.415 228.959 308.395C228.959 306.375 227.32 304.737 225.297 304.737C223.275 304.737 221.635 306.375 221.635 308.395C221.635 310.415 223.275 312.053 225.297 312.053Z" fill="white"/>
<path d="M237.948 312.053C239.97 312.053 241.61 310.415 241.61 308.395C241.61 306.375 239.97 304.737 237.948 304.737C235.925 304.737 234.286 306.375 234.286 308.395C234.286 310.415 235.925 312.053 237.948 312.053Z" fill="white"/>
<path d="M250.598 312.053C252.62 312.053 254.26 310.415 254.26 308.395C254.26 306.375 252.62 304.737 250.598 304.737C248.575 304.737 246.936 306.375 246.936 308.395C246.936 310.415 248.575 312.053 250.598 312.053Z" fill="white"/>
<path d="M167.545 124.451H144.364C143.178 124.451 142.217 125.411 142.217 126.595V149.749C142.217 150.933 143.178 151.893 144.364 151.893H167.545C168.731 151.893 169.692 150.933 169.692 149.749V126.595C169.692 125.411 168.731 124.451 167.545 124.451Z" fill="#BF65D6"/>
<path d="M209.615 124.451H186.434C185.248 124.451 184.287 125.411 184.287 126.595V149.749C184.287 150.933 185.248 151.893 186.434 151.893H209.615C210.8 151.893 211.761 150.933 211.761 149.749V126.595C211.761 125.411 210.8 124.451 209.615 124.451Z" fill="#BF65D6"/>
<path d="M251.684 124.451H228.503C227.318 124.451 226.357 125.411 226.357 126.595V149.749C226.357 150.933 227.318 151.893 228.503 151.893H251.684C252.87 151.893 253.831 150.933 253.831 149.749V126.595C253.831 125.411 252.87 124.451 251.684 124.451Z" fill="#BF65D6"/>
<path d="M293.754 124.451H270.573C269.387 124.451 268.426 125.411 268.426 126.595V149.749C268.426 150.933 269.387 151.893 270.573 151.893H293.754C294.94 151.893 295.901 150.933 295.901 149.749V126.595C295.901 125.411 294.94 124.451 293.754 124.451Z" fill="#BF65D6"/>
<path d="M335.824 124.451H312.643C311.458 124.451 310.497 125.411 310.497 126.595V149.749C310.497 150.933 311.458 151.893 312.643 151.893H335.824C337.01 151.893 337.971 150.933 337.971 149.749V126.595C337.971 125.411 337.01 124.451 335.824 124.451Z" fill="#BF65D6"/>
<path d="M167.545 181.049H144.364C143.178 181.049 142.217 182.009 142.217 183.193V206.347C142.217 207.531 143.178 208.491 144.364 208.491H167.545C168.731 208.491 169.692 207.531 169.692 206.347V183.193C169.692 182.009 168.731 181.049 167.545 181.049Z" fill="#BF65D6"/>
<path d="M209.615 181.049H186.434C185.248 181.049 184.287 182.009 184.287 183.193V206.347C184.287 207.531 185.248 208.491 186.434 208.491H209.615C210.8 208.491 211.761 207.531 211.761 206.347V183.193C211.761 182.009 210.8 181.049 209.615 181.049Z" fill="#BF65D6"/>
<path d="M251.684 181.049H228.503C227.318 181.049 226.357 182.009 226.357 183.193V206.347C226.357 207.531 227.318 208.491 228.503 208.491H251.684C252.87 208.491 253.831 207.531 253.831 206.347V183.193C253.831 182.009 252.87 181.049 251.684 181.049Z" fill="#BF65D6"/>
<path d="M293.754 181.049H270.573C269.387 181.049 268.426 182.009 268.426 183.193V206.347C268.426 207.531 269.387 208.491 270.573 208.491H293.754C294.94 208.491 295.901 207.531 295.901 206.347V183.193C295.901 182.009 294.94 181.049 293.754 181.049Z" fill="#BF65D6"/>
<path d="M335.824 181.049H312.643C311.458 181.049 310.497 182.009 310.497 183.193V206.347C310.497 207.531 311.458 208.491 312.643 208.491H335.824C337.01 208.491 337.971 207.531 337.971 206.347V183.193C337.971 182.009 337.01 181.049 335.824 181.049Z" fill="#BF65D6"/>
<path d="M167.545 237.647H144.364C143.178 237.647 142.217 238.607 142.217 239.791V262.945C142.217 264.129 143.178 265.089 144.364 265.089H167.545C168.731 265.089 169.692 264.129 169.692 262.945V239.791C169.692 238.607 168.731 237.647 167.545 237.647Z" fill="#BF65D6"/>
<path d="M251.684 237.647H228.503C227.318 237.647 226.357 238.607 226.357 239.791V262.945C226.357 264.129 227.318 265.089 228.503 265.089H251.684C252.87 265.089 253.831 264.129 253.831 262.945V239.791C253.831 238.607 252.87 237.647 251.684 237.647Z" fill="#BF65D6"/>
<path d="M293.754 237.647H270.573C269.387 237.647 268.426 238.607 268.426 239.791V262.945C268.426 264.129 269.387 265.089 270.573 265.089H293.754C294.94 265.089 295.901 264.129 295.901 262.945V239.791C295.901 238.607 294.94 237.647 293.754 237.647Z" fill="#BF65D6"/>
<path d="M335.824 237.647H312.643C311.458 237.647 310.497 238.607 310.497 239.791V262.945C310.497 264.129 311.458 265.089 312.643 265.089H335.824C337.01 265.089 337.971 264.129 337.971 262.945V239.791C337.971 238.607 337.01 237.647 335.824 237.647Z" fill="#BF65D6"/>
<path d="M192.412 383.298C192.412 383.298 200.565 399.076 205.151 402.638C209.737 406.201 197.762 410.527 197.762 410.527L183.75 388.642L192.412 383.298Z" fill="#FFB8B8"/>
<path d="M142.986 344.873C142.986 344.873 180.947 354.797 184.259 361.413C187.572 368.03 197.763 384.061 197.763 384.061L182.731 396.022L167.954 373.883L127.19 355.56L142.986 344.873Z" fill="#2F2E41"/>
<path d="M196.489 404.165C196.489 404.165 192.922 401.111 191.903 403.147C190.883 405.183 187.826 415.616 187.826 415.616C187.826 415.616 192.157 419.688 201.075 417.143C201.075 417.143 203.368 415.362 206.934 417.143C210.501 418.924 223.75 415.362 223.24 409.509C222.731 403.656 209.227 404.165 209.227 404.165C209.227 404.165 203.54 397.801 202.817 400.219C202.094 402.638 203.113 402.893 203.113 402.893C203.113 402.893 198.527 407.728 196.489 404.165Z" fill="#2F2E41"/>
<path d="M152.922 398.821L150.374 420.197H162.858C162.858 420.197 161.839 403.656 162.094 401.621C162.349 399.585 152.922 398.821 152.922 398.821Z" fill="#FFB8B8"/>
<path d="M160.056 351.744C160.056 351.744 166.935 361.923 162.858 362.687C158.782 363.45 155.47 351.744 155.47 351.744H160.056Z" fill="#FFB8B8"/>
<path d="M108.081 350.726C108.081 350.726 102.986 365.74 123.113 369.812C143.24 373.883 149.355 377.191 149.355 377.191L151.903 403.148L169.482 404.166C169.482 404.166 177.89 364.722 166.935 359.633C155.979 354.543 132.795 348.69 132.795 348.69L108.081 350.726Z" fill="#2F2E41"/>
<path d="M151.903 416.889C151.903 416.889 155.47 415.108 155.979 415.108C155.979 415.108 158.219 409.949 162.322 410.493L171.266 423.506C171.266 423.506 184.769 433.176 175.342 435.72C165.915 438.265 158.527 436.229 158.527 436.229L154.705 433.43C154.705 433.43 155.215 430.631 151.903 431.14C151.903 431.14 145.024 428.341 145.279 426.305C145.533 424.269 150.945 415.408 150.945 415.408L151.903 416.889Z" fill="#2F2E41"/>
<path d="M154.068 301.23C159.697 301.23 164.26 296.673 164.26 291.052C164.26 285.43 159.697 280.873 154.068 280.873C148.44 280.873 143.877 285.43 143.877 291.052C143.877 296.673 148.44 301.23 154.068 301.23Z" fill="#FFB8B8"/>
<path d="M145.788 287.871C145.788 287.871 136.616 294.487 134.833 294.742C133.049 294.996 143.24 307.466 143.24 307.466C143.24 307.466 148.081 299.577 151.139 298.559C154.196 297.541 145.788 287.871 145.788 287.871Z" fill="#FFB8B8"/>
<path d="M147.798 310.11L156.489 340.292L162.858 354.797C162.858 354.797 155.979 352.432 155.47 355.269L145.279 340.547L147.798 310.11Z" fill="#D0CDE1"/>
<path opacity="0.1" d="M147.798 310.11L156.489 340.292L162.858 354.797C162.858 354.797 155.979 352.432 155.47 355.269L145.279 340.547L147.798 310.11Z" fill="black"/>
<path d="M151.777 282.704L157.321 283.396C157.215 284.523 157.245 285.919 158.245 286.452C158.714 286.702 159.311 286.689 159.727 287.021C160.729 287.819 159.749 289.535 160.315 290.683L161.936 291.111C162.131 291.475 162.396 291.797 162.716 292.059C163.036 292.32 163.404 292.516 163.8 292.634C164.196 292.753 164.611 292.792 165.022 292.75C165.434 292.707 165.832 292.584 166.195 292.387C167.285 291.734 167.84 290.485 168.33 289.314C168.916 287.915 169.514 286.411 169.221 284.923C168.906 283.325 167.598 281.996 167.539 280.368C167.512 279.639 167.666 278.731 167.051 278.338C166.768 278.206 166.464 278.125 166.152 278.1C164.736 277.805 163.947 276.34 162.891 275.353C160.677 273.283 157.278 273.337 154.251 273.518C153.385 273.521 152.525 273.67 151.709 273.96C150.786 274.423 149.97 275.072 149.313 275.868C147.69 277.598 146.109 279.409 145.039 281.524C143.968 283.64 143.44 286.111 144.022 288.41C143.965 288.188 145.891 286.741 146.131 286.51C146.884 285.781 146.953 285.433 147.36 284.595C148.31 282.642 149.631 282.436 151.777 282.704Z" fill="#2F2E41"/>
<path d="M138.909 296.268C138.909 296.268 135.088 291.179 132.795 291.179C130.502 291.179 116.956 295.204 115.173 312.253C113.389 329.303 107.317 357.342 107.317 357.342C107.317 357.342 105.788 349.962 122.858 353.016C122.858 353.016 143.24 348.69 146.807 348.69C150.374 348.69 148.228 311.825 148.228 311.825L146.102 303.317C146.102 303.317 143.495 308.228 138.909 296.268Z" fill="#D0CDE1"/>
<path d="M173.984 331.12H150.803C149.618 331.12 148.657 332.08 148.657 333.264V356.418C148.657 357.602 149.618 358.562 150.803 358.562H173.984C175.17 358.562 176.131 357.602 176.131 356.418V333.264C176.131 332.08 175.17 331.12 173.984 331.12Z" fill="#BF65D6"/>
<path opacity="0.1" d="M135.469 315.481L136.234 333.294L147.567 346.569L137.253 331.768L135.469 315.481Z" fill="black"/>
<path opacity="0.1" d="M115.088 320.316L124.005 340.928L135.47 350.344L123.241 341.946L115.088 320.316Z" fill="black"/>
<path d="M152.644 349.355C152.644 349.355 162.75 356.35 159.228 358.538C155.706 360.726 148.37 351.016 148.37 351.016L152.644 349.355Z" fill="#FFB8B8"/>
<path d="M122.603 297.541C122.603 297.541 115.213 318.918 116.374 321.892C120.025 331.247 124.132 340.038 124.132 340.038L135.648 350.437L151.138 354.797L152.922 353.27C152.922 353.27 153.431 348.435 151.138 347.926C148.845 347.417 145.279 345.382 145.279 345.382L136.107 331.894C136.107 331.894 135.852 298.304 122.603 297.541Z" fill="#D0CDE1"/>
<path d="M466.452 340.347C466.465 367.372 450.384 376.815 430.543 376.825C430.082 376.825 429.623 376.82 429.167 376.81C428.247 376.791 427.337 376.75 426.437 376.686C408.529 375.428 394.611 365.515 394.598 340.381C394.586 314.371 427.853 281.53 430.348 279.101C430.35 279.101 430.35 279.101 430.352 279.099C430.447 279.007 430.495 278.96 430.495 278.96C430.495 278.96 466.439 313.323 466.452 340.347Z" fill="#BF65D6"/>
<path d="M429.233 372.692L442.364 354.348L429.201 374.705L429.167 376.81C428.247 376.791 427.337 376.75 426.437 376.686L427.84 349.649L427.828 349.439L427.853 349.4L427.986 346.845L414.77 326.45L428.025 344.931L428.058 345.473L429.118 325.045L417.802 303.968L429.255 321.455L430.348 279.101L430.352 278.96L430.352 279.099L430.183 312.499L441.429 299.253L430.136 315.375L429.847 333.667L440.35 316.108L429.807 336.356L429.646 346.527L444.889 322.086L429.588 350.075L429.233 372.692Z" fill="#3F3D56"/>
<path d="M462.639 376.417H394.635V377.221H462.639V376.417Z" fill="#3F3D56"/>
<path d="M79.7192 376.417H46.4663V377.221H79.7192V376.417Z" fill="#3F3D56"/>
<path d="M408.261 226.596C407.306 226.596 406.372 226.313 405.578 225.783C404.784 225.253 404.165 224.5 403.8 223.618C403.434 222.737 403.339 221.767 403.525 220.832C403.711 219.896 404.171 219.037 404.847 218.362C405.522 217.688 406.382 217.228 407.319 217.042C408.256 216.856 409.227 216.952 410.109 217.317C410.991 217.682 411.745 218.3 412.276 219.093C412.807 219.886 413.09 220.819 413.09 221.773C413.088 223.051 412.579 224.277 411.674 225.181C410.769 226.086 409.541 226.594 408.261 226.596V226.596ZM408.261 217.754C407.465 217.754 406.687 217.989 406.026 218.431C405.364 218.873 404.848 219.5 404.543 220.235C404.239 220.969 404.159 221.777 404.314 222.557C404.47 223.336 404.853 224.052 405.416 224.615C405.978 225.177 406.695 225.559 407.476 225.715C408.257 225.87 409.066 225.79 409.801 225.486C410.536 225.182 411.165 224.666 411.607 224.006C412.049 223.345 412.285 222.568 412.285 221.773C412.284 220.707 411.859 219.686 411.105 218.932C410.351 218.179 409.328 217.755 408.261 217.754V217.754Z" fill="#3F3D56"/>
<path d="M476.861 208.487H466.399V198.037H476.861V208.487ZM467.204 207.683H476.056V198.841H467.204V207.683Z" fill="#3F3D56"/>
</g>
<defs>
<clipPath id="clip0_450_5895">
<rect width="440.935" height="361" fill="white" transform="translate(36 76)"/>
</clipPath>
</defs>
</svg>
