<svg width="512" height="512" viewBox="0 0 512 512" fill="none" xmlns="http://www.w3.org/2000/svg">
<rect width="512" height="512" fill="#3F3F3F"/>
<g clip-path="url(#clip0_390_5838)">
<path d="M410.04 169.818C411.107 208.762 417.327 247.582 428.515 285.146C430.2 290.788 431.167 296.599 430.983 302.441C430.85 306.58 429.649 311.088 424.814 312.544C422.363 313.28 419.661 312.851 417.41 311.67C412.675 309.202 410.49 304.572 408.739 300.064C398.468 273.647 397.567 245.053 392.298 217.409C391.464 213.055 390.481 208.624 388.046 204.806C385.028 200.114 379.492 197.063 373.156 197.968C370.938 198.29 366.853 201.387 365.485 204.515C358.632 220.138 355.014 229.721 351.312 243.627C345.759 260.446 341.524 277.235 336.222 293.609C335.154 296.89 334.004 300.263 331.653 302.916C329.302 305.568 325.433 307.378 321.831 306.504C318.68 305.737 316.395 303.069 315.462 300.202C314.528 297.335 314.695 294.269 315.011 291.279C317.996 263.283 332.036 237.448 340.99 210.54C342.925 204.745 344.342 197.631 339.04 193.506C336.305 191.375 332.553 190.823 329.035 191.452C323.165 192.494 318.697 196.174 314.344 199.685C294.635 215.631 273.892 230.472 252.248 244.133C243.411 250.588 234.206 254.436 223.818 258.468C221.133 259.511 218.265 260.492 215.364 260.185C212.463 259.879 209.444 257.073 209.328 255.249C209.244 253.899 209.778 252.596 210.445 251.4C212.846 247.153 216.715 243.795 220.616 240.637C241.376 223.833 264.904 210.157 285.931 193.629C292.384 188.554 299.204 181.517 297.053 173.958C296.286 171.244 294.168 168.73 291.217 167.994C289.032 167.457 286.731 167.917 284.53 168.408C250.431 175.859 216.865 185.35 184.116 196.818C180.814 197.968 177.396 199.164 173.894 198.934C170.393 198.704 166.741 196.603 166.141 193.414C165.774 191.406 166.641 189.367 167.791 187.634C172.193 181.057 180.381 177.622 188.151 174.709C212.663 165.495 237.825 157.691 263.404 151.359C280.428 147.219 299.537 135.183 311.693 123.439C323.849 111.695 335.888 98.739 352.429 93.1121C363.968 89.1871 377.191 89.3251 388.413 93.9554C399.635 98.5856 408.656 107.77 412.008 118.655C417.027 134.953 409.49 152.217 410.257 169.144L410.04 169.818Z" fill="#FAFAFA"/>
<path d="M408.223 311.579C410.84 315.243 411.374 319.873 409.757 323.998C396.784 357.161 371.472 390.125 339.857 409.014C329.118 415.438 317.796 421.157 305.64 424.898C286.898 430.678 266.772 431.552 247.029 430.724C216.081 429.405 184.983 423.84 157.253 411.145C129.523 398.45 105.295 378.196 92.1553 352.408C77.0981 322.863 77.6818 287.4 91.5384 257.349C104.344 229.552 127.939 206.447 156.336 191.191C158.137 190.225 160.321 191.467 160.371 193.399C160.421 195.162 160.988 196.971 161.955 198.428C164.206 201.801 168.642 203.534 172.944 203.748C177.246 203.963 181.481 202.874 185.617 201.74C218.199 192.755 249.43 179.692 282.663 172.916C285.014 172.44 287.565 172.9 289.349 174.387C292.868 177.331 290.683 181.624 288.249 184.675C283.797 190.225 278.327 195.086 272.124 198.98C260.235 206.431 251.515 213.561 238.392 221.15C228.604 226.808 219.649 233.615 211.979 241.588C208.277 245.421 204.409 249.744 203.558 254.973C202.708 260.201 206.86 265.429 212.346 266.61C215.364 267.269 218.549 267.3 221.467 266.288C242.644 259.036 258.051 248.303 274.092 235.992C289.249 224.355 305.04 211.982 321.248 201.617C324.966 199.593 326.25 198.336 329.568 197.508C331.836 196.956 334.354 197.462 335.855 199.118C337.622 201.065 336.889 203.196 336.138 205.159L330.602 219.939C322.999 240.254 315.362 260.63 310.243 281.604C308.925 286.955 307.775 292.49 308.658 297.918C309.542 303.345 312.81 308.742 318.246 311.027C323.682 313.311 331.469 310.766 335.071 305.86C353.046 275.686 356.531 242.109 369.071 209.712C370.038 207.198 371.238 204.484 374.59 203.871C376.874 203.457 379.225 204.254 380.893 205.741C384.144 208.624 384.695 212.825 385.112 216.796C386.879 233.83 387.896 251.002 391.665 267.76C394.966 282.432 399.235 298.899 408.256 311.579H408.223Z" fill="#FAFAFA"/>
<path d="M409.156 87.1636C409.156 87.1636 392.148 90.1533 386.662 103.032" stroke="#FAFAFA" stroke-miterlimit="10"/>
<path d="M412.675 89.6166C415.032 89.6166 416.943 87.8593 416.943 85.6916C416.943 83.5239 415.032 81.7666 412.675 81.7666C410.317 81.7666 408.406 83.5239 408.406 85.6916C408.406 87.8593 410.317 89.6166 412.675 89.6166Z" stroke="#FAFAFA" stroke-miterlimit="10"/>
<path d="M356.748 114.071C356.815 113.872 356.881 113.673 356.915 113.473C356.931 113.335 356.981 113.182 356.965 113.044C356.965 112.737 356.848 112.446 356.598 112.216C356.464 112.093 356.264 111.971 356.064 111.94C356.031 111.94 355.781 111.909 355.747 111.894C355.447 111.894 355.114 112.017 354.897 112.216C354.814 112.308 354.714 112.4 354.664 112.507C354.547 112.691 354.464 112.906 354.414 113.121C354.33 113.427 354.28 113.749 354.247 114.071C354.247 114.225 354.28 114.363 354.347 114.485C354.397 114.623 354.48 114.73 354.597 114.838L354.83 115.006C354.964 115.083 355.114 115.129 355.264 115.129C355.364 115.16 355.481 115.16 355.581 115.129C355.731 115.129 355.881 115.083 356.014 115.006L356.248 114.838C356.398 114.7 356.498 114.546 356.548 114.363C356.615 114.163 356.665 113.964 356.715 113.749C356.748 113.596 356.765 113.443 356.781 113.289C356.781 113.274 356.781 113.243 356.781 113.228V113.197C356.781 113.121 356.748 112.983 356.731 112.906V112.875C356.731 112.875 356.631 112.645 356.615 112.599C356.615 112.599 356.431 112.369 356.431 112.354C356.431 112.354 356.214 112.185 356.181 112.17C356.181 112.17 355.914 112.063 355.898 112.047H355.864C355.864 112.047 355.614 112.001 355.547 112.001C355.547 112.001 355.547 112.001 355.531 112.001C355.414 112.001 355.281 112.032 355.164 112.047C355.114 112.047 355.081 112.063 355.03 112.078C354.897 112.109 354.747 112.139 354.614 112.155L354.93 112.109C354.764 112.109 354.614 112.139 354.48 112.201C354.33 112.247 354.213 112.323 354.097 112.431C353.98 112.523 353.897 112.645 353.847 112.783C353.78 112.906 353.747 113.059 353.747 113.197L353.797 113.489C353.847 113.673 353.947 113.826 354.097 113.964L354.33 114.133C354.514 114.225 354.714 114.286 354.93 114.286C355.147 114.255 355.364 114.24 355.581 114.194C355.664 114.179 355.748 114.163 355.831 114.148L355.514 114.194C355.514 114.194 355.564 114.194 355.597 114.194L355.281 114.148H355.314L355.03 114.041H355.047L354.814 113.887L354.63 113.688L354.514 113.458C354.514 113.458 354.514 113.489 354.514 113.504L354.464 113.213C354.464 113.213 354.464 113.305 354.464 113.366L354.514 113.075C354.48 113.32 354.397 113.565 354.313 113.811L356.631 114.102C356.631 114.102 356.631 113.964 356.648 113.903L356.598 114.194C356.631 113.949 356.681 113.688 356.798 113.443L356.681 113.703C356.681 113.703 356.715 113.611 356.748 113.581L356.565 113.795H356.581L356.348 113.949L356.064 114.056L355.747 114.087L355.431 114.041L355.147 113.933L354.914 113.765L354.73 113.55L354.614 113.305L354.564 113.044C354.564 113.044 354.564 113.121 354.564 113.167L354.614 112.875C354.58 113.09 354.514 113.305 354.447 113.519C354.397 113.657 354.397 113.811 354.43 113.949C354.43 114.087 354.48 114.225 354.564 114.347C354.63 114.47 354.747 114.577 354.864 114.654C354.98 114.746 355.114 114.807 355.264 114.853L355.581 114.899C355.798 114.899 355.998 114.853 356.181 114.746L356.414 114.577C356.565 114.439 356.665 114.286 356.715 114.102L356.748 114.071Z" fill="#252525"/>
<path d="M375.424 114.362C375.357 113.964 375.223 113.565 375.157 113.166L375.207 113.458C375.173 113.243 375.173 113.013 375.207 112.798L375.157 113.09C375.19 112.921 375.223 112.752 375.29 112.599L373.122 112.86C373.122 112.86 373.172 112.936 373.189 112.982L373.072 112.722C373.072 112.722 373.122 112.844 373.122 112.921L373.072 112.63C373.106 112.814 373.072 112.998 373.072 113.182L373.122 112.89C373.056 113.32 372.906 113.764 372.906 114.209L372.956 113.918L373.256 113.442L374.69 113.274L375.107 113.657L375.223 113.918L375.273 114.194C375.223 113.856 375.207 113.519 375.19 113.197C375.173 112.921 375.14 112.63 375.123 112.354H372.756C372.756 112.538 372.806 112.737 372.922 112.906C373.022 113.059 373.172 113.197 373.339 113.289C373.406 113.335 373.489 113.366 373.556 113.396C373.673 113.458 373.773 113.519 373.873 113.58L373.639 113.412C373.723 113.473 373.806 113.55 373.889 113.626L373.706 113.412C373.706 113.412 373.773 113.488 373.789 113.534L373.673 113.274C373.673 113.274 373.706 113.35 373.706 113.396L373.656 113.105C373.656 113.105 373.656 113.182 373.656 113.228L373.706 112.936C373.706 112.936 373.673 113.074 373.639 113.136L373.756 112.875C373.673 113.059 373.539 113.243 373.439 113.427C373.239 113.826 373.106 114.224 373.106 114.669C373.106 114.945 373.239 115.236 373.456 115.436C373.656 115.62 373.99 115.773 374.29 115.758C374.923 115.727 375.49 115.282 375.474 114.669C375.474 114.592 375.474 114.516 375.474 114.439L375.424 114.73C375.44 114.592 375.49 114.47 375.54 114.332L375.424 114.592C375.64 114.117 375.99 113.718 375.99 113.182C375.99 112.338 375.257 111.771 374.506 111.403L375.09 112.338C375.073 112.047 374.973 111.787 374.74 111.572C374.54 111.388 374.206 111.235 373.906 111.25C373.606 111.265 373.289 111.357 373.072 111.572C372.856 111.787 372.706 112.047 372.722 112.338C372.739 112.66 372.772 112.998 372.789 113.32C372.806 113.534 372.822 113.749 372.839 113.964C372.839 114.025 372.839 114.086 372.856 114.163C372.856 114.27 372.856 114.393 372.906 114.485C372.989 114.761 373.189 115.006 373.456 115.144C373.689 115.267 373.939 115.313 374.206 115.267C374.44 115.236 374.723 115.144 374.89 114.976C375.123 114.715 375.223 114.5 375.24 114.178C375.24 114.117 375.24 114.071 375.24 114.01L375.19 114.301C375.257 113.902 375.357 113.504 375.39 113.09C375.407 112.936 375.424 112.783 375.39 112.63C375.357 112.476 375.357 112.308 375.307 112.17C375.257 112.032 375.19 111.879 375.107 111.756C374.99 111.603 374.857 111.465 374.69 111.373C374.456 111.25 374.19 111.204 373.939 111.25C373.456 111.311 373.106 111.618 372.956 112.032C372.839 112.323 372.789 112.645 372.772 112.952C372.756 113.243 372.789 113.519 372.839 113.81C372.906 114.209 373.022 114.577 373.106 114.976C373.156 115.221 373.423 115.497 373.656 115.62C373.906 115.758 374.29 115.819 374.573 115.727C374.857 115.635 375.14 115.482 375.273 115.221L375.39 114.96C375.44 114.761 375.44 114.577 375.39 114.378L375.424 114.362Z" fill="#252525"/>
<path d="M357.832 121.753C358.532 122.672 359.383 123.378 360.533 123.776C361.534 124.129 362.651 124.114 363.701 123.899C365.836 123.485 367.77 122.212 369.271 120.802C370.338 119.805 368.67 118.257 367.603 119.269C366.419 120.388 365.002 121.339 363.434 121.722C363.234 121.768 363.051 121.814 362.851 121.844C362.717 121.86 362.968 121.844 362.751 121.844C362.651 121.844 362.567 121.844 362.467 121.86C362.267 121.86 362.05 121.86 361.85 121.844C362.017 121.86 361.85 121.844 361.784 121.829C361.7 121.814 361.6 121.799 361.517 121.768C361.434 121.737 361.333 121.722 361.25 121.691C361.133 121.661 361.35 121.753 361.167 121.661C360.983 121.569 360.817 121.492 360.667 121.385C360.516 121.277 360.1 120.879 359.916 120.649C359.549 120.173 358.882 119.943 358.299 120.265C357.782 120.541 357.515 121.262 357.882 121.753H357.832Z" fill="#252525"/>
</g>
<defs>
<clipPath id="clip0_390_5838">
<rect width="350" height="350" fill="white" transform="translate(81 81)"/>
</clipPath>
</defs>
</svg>
